<svg class="" style="--icon-color: lch(37.48% 1 282.863 / 1);" width="16" height="16" viewBox="0 0 16 16" fill="lch(37.48% 1 282.863 / 1)" role="img" focusable="false" aria-hidden="true" xmlns="http://www.w3.org/2000/svg">
  <path d="M4.25 1A3.25 3.25 0 0 0 1 4.25v4.5A3.25 3.25 0 0 0 4.25 12h4.5A3.25 3.25 0 0 0 12 8.75v-4.5A3.25 3.25 0 0 0 8.75 1h-4.5ZM2.5 4.25c0-.966.784-1.75 1.75-1.75h4.5c.966 0 1.75.784 1.75 1.75v4.5a1.75 1.75 0 0 1-1.75 1.75h-4.5A1.75 1.75 0 0 1 2.5 8.75v-4.5Z"></path>
  <path d="M5.043 14.136C4.556 13.685 4.98 13 5.645 13c.244 0 .472.105.678.235.269.168.587.265.927.265h4.5c.477 0 .91-.19 1.225-.5H13v-.025c.31-.316.5-.748.5-1.225v-4.5c0-.34-.097-.658-.265-.927-.13-.206-.235-.434-.235-.678 0-.664.684-1.09 1.136-.602.536.58.864 1.355.864 2.207v4.5A3.25 3.25 0 0 1 11.75 15h-4.5a3.238 3.238 0 0 1-2.207-.864Z"></path>
</svg>
