<svg width="200" height="200" viewBox="0 0 200 200" fill="none" xmlns="http://www.w3.org/2000/svg">
  <path fill-rule="evenodd" clip-rule="evenodd" d="M100 200C125.37 200 148.533 190.553 166.164 174.984L151.387 166.453C151.382 166.457 151.376 166.462 151.371 166.466L16.748 88.7413C22.2493 47.673 57.4258 16 100 16C146.392 16 184 53.6081 184 100C184 115.23 179.947 129.514 172.86 141.831L41.2139 65.8252C38.5052 70.4845 36.3607 75.4484 34.8247 80.6116L163.551 154.932C163.538 154.947 163.525 154.962 163.511 154.978L177.581 163.101C191.597 145.89 200 123.926 200 100C200 44.7715 155.228 0 100 0C45.5822 0 1.31667 43.4668 0.0288391 97.5748L16.2842 106.96C16.2839 106.956 16.2836 106.952 16.2833 106.948L135.857 175.984C124.982 181.125 112.827 184 100 184C63.4402 184 32.3356 160.644 20.7933 128.038L1.41348 116.849C9.42327 164.055 50.5139 200 100 200Z" fill="white"/>
</svg>
