<svg xmlns="http://www.w3.org/2000/svg" width="16" height="16" viewBox="0 0 16 16" fill="lch(61.683% 1 272 / 1)" aria-hidden="true">
  <path d="M7.125 2.01655C7.125 1.4768 6.64899 1.05501 6.12893 1.19947C3.17141 2.02102 1 4.74235 1 7.97282C1 11.8538 4.13401 15 8 15C11.866 15 15 11.8538 15 7.97282C15 4.74235 12.8286 2.02102 9.87107 1.19947C9.35101 1.05501 8.875 1.4768 8.875 2.01655V2.01655C8.875 2.45457 9.19479 2.82058 9.61155 2.95538C11.7226 3.63819 13.25 5.62644 13.25 7.97282C13.25 10.8836 10.8995 13.2432 8 13.2432C5.10051 13.2432 2.75 10.8836 2.75 7.97282C2.75 5.62644 4.27737 3.63819 6.38845 2.95538C6.80521 2.82058 7.125 2.45457 7.125 2.01655V2.01655Z"></path>
  <path d="M6.95588 5.28329L10.6901 7.43926C11.0235 7.63171 11.0235 8.11283 10.6901 8.30528L6.95588 10.4612C6.62255 10.6537 6.20588 10.4131 6.20588 10.0282L6.20588 5.71631C6.20588 5.33141 6.62255 5.09084 6.95588 5.28329Z"></path>
</svg>
